<?xml version="1.0" encoding="utf-8"?>
<!-- Generator: Adobe Illustrator 24.1.0, SVG Export Plug-In . SVG Version: 6.00 Build 0)  -->
<svg version="1.1" id="Layer_1" xmlns="http://www.w3.org/2000/svg" xmlns:xlink="http://www.w3.org/1999/xlink" x="0px" y="0px"
	 viewBox="0 0 37 37" style="enable-background:new 0 0 37 37;" xml:space="preserve">
<g>
	<g>
		<path d="M14.8,14.4c0-1.1-0.9-2-2-2c-0.6,0-1.2,0.2-1.6,0.7c-0.3,0.4-0.4,0.8-0.4,1.3c0,1.1,0.9,2,2,2S14.8,15.5,14.8,14.4z"/>
		<path d="M26.2,14.4c0-1.1-0.9-2-2-2c-0.6,0-1.2,0.2-1.6,0.7c-0.3,0.4-0.4,0.8-0.4,1.3c0,1.1,0.9,2,2,2S26.2,15.5,26.2,14.4z"/>
	</g>
</g>
<g>
	<path d="M23.8,20.8H13.2c-0.8,0-1.4,0.6-1.4,1.4v2.1c0,2.2,1.4,4.4,3.4,5.3c1,0.6,2.2,0.9,3.3,0.9c3.6,0,6.6-2.9,6.6-6.5v-1.8
		C25.1,21.4,24.6,20.8,23.8,20.8z M22.4,23.7v0.4c0,2-1.7,3.7-3.8,3.7c-0.7,0-1.4-0.2-2.1-0.6c-1.1-0.5-1.8-1.6-1.8-2.8v-0.8
		L22.4,23.7z"/>
	<path d="M18.5,0.5c-9.9,0-18,8.1-18,18s8.1,18,18,18s18-8.1,18-18S28.4,0.5,18.5,0.5z M18.5,33.8c-8.4,0-15.2-6.8-15.2-15.2
		S10.1,3.2,18.5,3.2c8.4,0.1,15.3,6.9,15.3,15.2C33.8,26.9,26.9,33.8,18.5,33.8z"/>
</g>
</svg>
