<?xml version="1.0" encoding="utf-8"?>
<!-- Generator: Adobe Illustrator 24.1.0, SVG Export Plug-In . SVG Version: 6.00 Build 0)  -->
<svg version="1.1" id="Layer_1" xmlns="http://www.w3.org/2000/svg" xmlns:xlink="http://www.w3.org/1999/xlink" x="0px" y="0px"
	 viewBox="0 0 38 37" style="enable-background:new 0 0 38 37;" xml:space="preserve">
<g>
	<path d="M24.2,20.8H13.8c-0.8,0-1.4,0.6-1.4,1.4v2.1c0,2.2,1.4,4.4,3.4,5.3c1,0.6,2.2,0.9,3.3,0.9c3.6,0,6.6-2.9,6.6-6.5v-1.8
		C25.6,21.4,25.1,20.8,24.2,20.8z M22.9,23.7v0.4c0,2-1.7,3.7-3.8,3.7c-0.7,0-1.4-0.2-2.1-0.6c-1.1-0.5-1.8-1.6-1.8-2.8v-0.8
		L22.9,23.7z"/>
	<path d="M19,0.5c-9.9,0-18,8.1-18,18s8.1,18,18,18s18-8.1,18-18S28.9,0.5,19,0.5z M19,33.8c-8.4,0-15.2-6.8-15.2-15.2
		S10.6,3.2,19,3.2c8.4,0.1,15.3,6.9,15.3,15.2C34.3,26.9,27.4,33.8,19,33.8z"/>
	<path d="M14.9,16.2c-0.5,0-1-0.3-1.2-0.7c-0.1-0.1-0.7-1-2.1-1c-1.4,0-2,0.9-2.1,1c-0.4,0.7-1.2,0.9-1.9,0.6
		c-0.7-0.4-0.9-1.2-0.6-1.9c0.5-0.9,2-2.5,4.5-2.5c2.5,0,4.1,1.6,4.6,2.5c0.4,0.7,0.1,1.5-0.5,1.9C15.4,16.1,15.1,16.2,14.9,16.2z"
		/>
	<path d="M29.7,16.2c-0.5,0-1-0.3-1.2-0.7c-0.1-0.1-0.7-1-2.1-1c-1.4,0-2,0.9-2.1,1c-0.4,0.7-1.2,0.9-1.9,0.6
		c-0.7-0.4-0.9-1.2-0.6-1.9c0.5-0.9,2-2.5,4.5-2.5c2.5,0,4.1,1.6,4.6,2.5c0.4,0.7,0.1,1.5-0.5,1.9C30.2,16.1,30,16.2,29.7,16.2z"/>
</g>
</svg>
